# MagicaVoxel @ Ephtracy

# group
o 

# material
mtllib door.mtl
usemtl palette

# normals
vn -1 0 0
vn 1 0 0
vn 0 0 1
vn 0 0 -1
vn 0 -1 0
vn 0 1 0

# texcoords
vt 0.966797 0.5
vt 0.970703 0.5

# verts
v -1.6 0 0.1
v -1.6 0 -0.4
v -1.6 0.2 0.1
v -1.6 0.2 -0.4
v -1.6 6.3 -0.1
v -1.6 6.3 -0.4
v -1.6 6.4 -0.1
v -1.6 6.4 -0.4
v -1.5 0.2 -0.1
v -1.5 0.2 -0.4
v -1.5 6.3 -0.1
v -1.5 6.3 -0.4
v -1.1 3.1 0
v -1.1 3.1 -0.2
v -1.1 3.4 0
v -1.1 3.4 -0.2
v 1.4 0.4 -0.1
v 1.4 0.4 -0.2
v 1.4 6.2 -0.1
v 1.4 6.2 -0.2
v -1.4 0.4 -0.1
v -1.4 0.4 -0.2
v -1.4 6.2 -0.1
v -1.4 6.2 -0.2
v -0.8 3.1 0
v -0.8 3.1 -0.2
v -0.8 3.4 0
v -0.8 3.4 -0.2
v 1.5 0.2 -0.1
v 1.5 0.2 -0.4
v 1.5 6.3 -0.1
v 1.5 6.3 -0.4
v 1.6 0 0.1
v 1.6 0 -0.4
v 1.6 0.2 0.1
v 1.6 0.2 -0.4
v 1.6 6.3 -0.1
v 1.6 6.3 -0.4
v 1.6 6.4 -0.1
v 1.6 6.4 -0.4
v -1.6 0 0.1
v -1.6 0.2 0.1
v 1.6 0 0.1
v 1.6 0.2 0.1
v -1.1 3.1 0
v -1.1 3.4 0
v -0.8 3.1 0
v -0.8 3.4 0
v -1.6 6.3 -0.1
v -1.6 6.4 -0.1
v -1.5 0.2 -0.1
v -1.5 6.3 -0.1
v -1.4 0.4 -0.1
v -1.4 6.2 -0.1
v 1.4 0.4 -0.1
v 1.4 6.2 -0.1
v 1.5 0.2 -0.1
v 1.5 6.3 -0.1
v 1.6 6.3 -0.1
v 1.6 6.4 -0.1
v -1.4 0.4 -0.2
v -1.4 6.2 -0.2
v -1.1 3.1 -0.2
v -1.1 3.4 -0.2
v -0.8 3.1 -0.2
v -0.8 3.4 -0.2
v 1.4 0.4 -0.2
v 1.4 6.2 -0.2
v -1.6 0 -0.4
v -1.6 0.2 -0.4
v -1.6 6.3 -0.4
v -1.6 6.4 -0.4
v -1.5 0.2 -0.4
v -1.5 6.3 -0.4
v 1.5 0.2 -0.4
v 1.5 6.3 -0.4
v 1.6 0 -0.4
v 1.6 0.2 -0.4
v 1.6 6.3 -0.4
v 1.6 6.4 -0.4
v -1.6 0 0.1
v 1.6 0 0.1
v -1.6 0 -0.4
v 1.6 0 -0.4
v -1.1 3.1 0
v -0.8 3.1 0
v -1.1 3.1 -0.2
v -0.8 3.1 -0.2
v -1.4 6.2 -0.1
v 1.4 6.2 -0.1
v -1.4 6.2 -0.2
v 1.4 6.2 -0.2
v -1.6 6.3 -0.1
v -1.5 6.3 -0.1
v 1.5 6.3 -0.1
v 1.6 6.3 -0.1
v -1.6 6.3 -0.4
v -1.5 6.3 -0.4
v 1.5 6.3 -0.4
v 1.6 6.3 -0.4
v -1.6 0.2 0.1
v 1.6 0.2 0.1
v -1.5 0.2 -0.1
v 1.5 0.2 -0.1
v -1.6 0.2 -0.4
v -1.5 0.2 -0.4
v 1.5 0.2 -0.4
v 1.6 0.2 -0.4
v -1.4 0.4 -0.1
v 1.4 0.4 -0.1
v -1.4 0.4 -0.2
v 1.4 0.4 -0.2
v -1.1 3.4 0
v -0.8 3.4 0
v -1.1 3.4 -0.2
v -0.8 3.4 -0.2
v -1.6 6.4 -0.1
v 1.6 6.4 -0.1
v -1.6 6.4 -0.4
v 1.6 6.4 -0.4

# faces
f 3/1/1 2/1/1 1/1/1
f 4/1/1 2/1/1 3/1/1
f 7/1/1 6/1/1 5/1/1
f 8/1/1 6/1/1 7/1/1
f 11/1/1 10/1/1 9/1/1
f 12/1/1 10/1/1 11/1/1
f 15/2/1 14/2/1 13/2/1
f 16/2/1 14/2/1 15/2/1
f 19/1/1 18/1/1 17/1/1
f 20/1/1 18/1/1 19/1/1
f 21/1/2 22/1/2 23/1/2
f 23/1/2 22/1/2 24/1/2
f 25/2/2 26/2/2 27/2/2
f 27/2/2 26/2/2 28/2/2
f 29/1/2 30/1/2 31/1/2
f 31/1/2 30/1/2 32/1/2
f 33/1/2 34/1/2 35/1/2
f 35/1/2 34/1/2 36/1/2
f 37/1/2 38/1/2 39/1/2
f 39/1/2 38/1/2 40/1/2
f 43/1/3 42/1/3 41/1/3
f 44/1/3 42/1/3 43/1/3
f 47/2/3 46/2/3 45/2/3
f 48/2/3 46/2/3 47/2/3
f 52/1/3 50/1/3 49/1/3
f 53/1/3 52/1/3 51/1/3
f 54/1/3 52/1/3 53/1/3
f 55/1/3 53/1/3 51/1/3
f 56/1/3 52/1/3 54/1/3
f 57/1/3 55/1/3 51/1/3
f 57/1/3 56/1/3 55/1/3
f 58/1/3 50/1/3 52/1/3
f 58/1/3 56/1/3 57/1/3
f 58/1/3 52/1/3 56/1/3
f 59/1/3 50/1/3 58/1/3
f 60/1/3 50/1/3 59/1/3
f 63/1/3 62/1/3 61/1/3
f 64/1/3 62/1/3 63/1/3
f 65/1/3 63/1/3 61/1/3
f 66/1/3 62/1/3 64/1/3
f 67/1/3 65/1/3 61/1/3
f 67/1/3 66/1/3 65/1/3
f 68/1/3 62/1/3 66/1/3
f 68/1/3 66/1/3 67/1/3
f 69/1/4 70/1/4 73/1/4
f 71/1/4 72/1/4 74/1/4
f 69/1/4 73/1/4 75/1/4
f 73/1/4 74/1/4 75/1/4
f 74/1/4 72/1/4 76/1/4
f 75/1/4 74/1/4 76/1/4
f 69/1/4 75/1/4 77/1/4
f 77/1/4 75/1/4 78/1/4
f 76/1/4 72/1/4 79/1/4
f 79/1/4 72/1/4 80/1/4
f 83/1/5 82/1/5 81/1/5
f 84/1/5 82/1/5 83/1/5
f 87/2/5 86/2/5 85/2/5
f 88/2/5 86/2/5 87/2/5
f 91/1/5 90/1/5 89/1/5
f 92/1/5 90/1/5 91/1/5
f 97/1/5 94/1/5 93/1/5
f 98/1/5 94/1/5 97/1/5
f 99/1/5 96/1/5 95/1/5
f 100/1/5 96/1/5 99/1/5
f 101/1/6 102/1/6 103/1/6
f 103/1/6 102/1/6 104/1/6
f 101/1/6 103/1/6 105/1/6
f 105/1/6 103/1/6 106/1/6
f 104/1/6 102/1/6 107/1/6
f 107/1/6 102/1/6 108/1/6
f 109/1/6 110/1/6 111/1/6
f 111/1/6 110/1/6 112/1/6
f 113/2/6 114/2/6 115/2/6
f 115/2/6 114/2/6 116/2/6
f 117/1/6 118/1/6 119/1/6
f 119/1/6 118/1/6 120/1/6
