# MagicaVoxel @ Ephtracy

# group
o 

# material
mtllib gomibox.mtl
usemtl palette

# normals
vn -1 0 0
vn 1 0 0
vn 0 0 1
vn 0 0 -1
vn 0 -1 0
vn 0 1 0

# texcoords
vt 0.966797 0.5
vt 0.970703 0.5
vt 0.990234 0.5

# verts
v -2 2.6 1.6
v -2 2.6 0.2
v -2 2.7 0.2
v -2 2.7 -0.8
v -2 2.8 -0.8
v -2 2.8 -1.6
v -2 3 1.6
v -2 3 0.2
v -2 3.1 0.2
v -2 3.1 -0.8
v -2 3.2 -0.8
v -2 3.2 -1.6
v -1.8 0.3 1.4
v -1.8 0.3 -1.5
v -1.8 2.6 1.4
v -1.8 2.6 0.2
v -1.8 2.7 0.2
v -1.8 2.7 -0.8
v -1.8 2.8 -0.8
v -1.8 2.8 -1.5
v -1.7 0 1.2
v -1.7 0 0.7
v -1.7 0 -0.8
v -1.7 0 -1.3
v -1.7 0.3 1.2
v -1.7 0.3 0.7
v -1.7 0.3 -0.8
v -1.7 0.3 -1.3
v -0.2 2.2 1.7
v -0.2 2.2 1.4
v -0.2 2.6 1.6
v -0.2 2.6 1.4
v -0.2 2.7 1.7
v -0.2 2.7 1.6
v 1.4 0.3 1.4
v 1.4 0.3 -1.5
v 1.4 0.5 1.4
v 1.4 0.5 -1.5
v 1.5 0 1.2
v 1.5 0 0.7
v 1.5 0 -0.8
v 1.5 0 -1.3
v 1.5 0.3 1.2
v 1.5 0.3 0.7
v 1.5 0.3 -0.8
v 1.5 0.3 -1.3
v -1.5 0 1.2
v -1.5 0 0.7
v -1.5 0 -0.8
v -1.5 0 -1.3
v -1.5 0.3 1.2
v -1.5 0.3 0.7
v -1.5 0.3 -0.8
v -1.5 0.3 -1.3
v -1.4 0.3 1.4
v -1.4 0.3 -1.5
v -1.4 0.5 1.4
v -1.4 0.5 -1.5
v 0.2 2.2 1.7
v 0.2 2.2 1.4
v 0.2 2.6 1.6
v 0.2 2.6 1.4
v 0.2 2.7 1.7
v 0.2 2.7 1.6
v 1.7 0 1.2
v 1.7 0 0.7
v 1.7 0 -0.8
v 1.7 0 -1.3
v 1.7 0.3 1.2
v 1.7 0.3 0.7
v 1.7 0.3 -0.8
v 1.7 0.3 -1.3
v 1.8 0.3 1.4
v 1.8 0.3 -1.5
v 1.8 2.6 1.4
v 1.8 2.6 0.2
v 1.8 2.7 0.2
v 1.8 2.7 -0.8
v 1.8 2.8 -0.8
v 1.8 2.8 -1.5
v 2 2.6 1.6
v 2 2.6 0.2
v 2 2.7 0.2
v 2 2.7 -0.8
v 2 2.8 -0.8
v 2 2.8 -1.6
v 2 3 1.6
v 2 3 0.2
v 2 3.1 0.2
v 2 3.1 -0.8
v 2 3.2 -0.8
v 2 3.2 -1.6
v -0.2 2.2 1.7
v -0.2 2.7 1.7
v 0.2 2.2 1.7
v 0.2 2.7 1.7
v -2 2.6 1.6
v -2 3 1.6
v -0.2 2.6 1.6
v -0.2 2.7 1.6
v 0.2 2.6 1.6
v 0.2 2.7 1.6
v 2 2.6 1.6
v 2 3 1.6
v -1.8 0.3 1.4
v -1.8 2.6 1.4
v -1.4 0.3 1.4
v -1.4 0.5 1.4
v -0.2 2.2 1.4
v -0.2 2.6 1.4
v 0.2 2.2 1.4
v 0.2 2.6 1.4
v 1.4 0.3 1.4
v 1.4 0.5 1.4
v 1.8 0.3 1.4
v 1.8 2.6 1.4
v -1.7 0 1.2
v -1.7 0.3 1.2
v -1.5 0 1.2
v -1.5 0.3 1.2
v 1.5 0 1.2
v 1.5 0.3 1.2
v 1.7 0 1.2
v 1.7 0.3 1.2
v -2 3 0.2
v -2 3.1 0.2
v 2 3 0.2
v 2 3.1 0.2
v -2 3.1 -0.8
v -2 3.2 -0.8
v -1.7 0 -0.8
v -1.7 0.3 -0.8
v -1.5 0 -0.8
v -1.5 0.3 -0.8
v 1.5 0 -0.8
v 1.5 0.3 -0.8
v 1.7 0 -0.8
v 1.7 0.3 -0.8
v 2 3.1 -0.8
v 2 3.2 -0.8
v -1.7 0 0.7
v -1.7 0.3 0.7
v -1.5 0 0.7
v -1.5 0.3 0.7
v 1.5 0 0.7
v 1.5 0.3 0.7
v 1.7 0 0.7
v 1.7 0.3 0.7
v -2 2.6 0.2
v -2 2.7 0.2
v -1.8 2.6 0.2
v -1.8 2.7 0.2
v 1.8 2.6 0.2
v 1.8 2.7 0.2
v 2 2.6 0.2
v 2 2.7 0.2
v -2 2.7 -0.8
v -2 2.8 -0.8
v -1.8 2.7 -0.8
v -1.8 2.8 -0.8
v 1.8 2.7 -0.8
v 1.8 2.8 -0.8
v 2 2.7 -0.8
v 2 2.8 -0.8
v -1.7 0 -1.3
v -1.7 0.3 -1.3
v -1.5 0 -1.3
v -1.5 0.3 -1.3
v 1.5 0 -1.3
v 1.5 0.3 -1.3
v 1.7 0 -1.3
v 1.7 0.3 -1.3
v -1.8 0.3 -1.5
v -1.8 2.8 -1.5
v -1.4 0.3 -1.5
v -1.4 0.5 -1.5
v 1.4 0.3 -1.5
v 1.4 0.5 -1.5
v 1.8 0.3 -1.5
v 1.8 2.8 -1.5
v -2 2.8 -1.6
v -2 3.2 -1.6
v 2 2.8 -1.6
v 2 3.2 -1.6
v -1.7 0 1.2
v -1.5 0 1.2
v 1.5 0 1.2
v 1.7 0 1.2
v -1.7 0 0.7
v -1.5 0 0.7
v 1.5 0 0.7
v 1.7 0 0.7
v -1.7 0 -0.8
v -1.5 0 -0.8
v 1.5 0 -0.8
v 1.7 0 -0.8
v -1.7 0 -1.3
v -1.5 0 -1.3
v 1.5 0 -1.3
v 1.7 0 -1.3
v -1.8 0.3 1.4
v -1.4 0.3 1.4
v 1.4 0.3 1.4
v 1.8 0.3 1.4
v -1.7 0.3 1.2
v -1.5 0.3 1.2
v 1.5 0.3 1.2
v 1.7 0.3 1.2
v -1.7 0.3 0.7
v -1.5 0.3 0.7
v 1.5 0.3 0.7
v 1.7 0.3 0.7
v -1.7 0.3 -0.8
v -1.5 0.3 -0.8
v 1.5 0.3 -0.8
v 1.7 0.3 -0.8
v -1.7 0.3 -1.3
v -1.5 0.3 -1.3
v 1.5 0.3 -1.3
v 1.7 0.3 -1.3
v -1.8 0.3 -1.5
v -1.4 0.3 -1.5
v 1.4 0.3 -1.5
v 1.8 0.3 -1.5
v -1.4 0.5 1.4
v 1.4 0.5 1.4
v -1.4 0.5 -1.5
v 1.4 0.5 -1.5
v -0.2 2.2 1.7
v 0.2 2.2 1.7
v -0.2 2.2 1.4
v 0.2 2.2 1.4
v -2 2.6 1.6
v -0.2 2.6 1.6
v 0.2 2.6 1.6
v 2 2.6 1.6
v -1.8 2.6 1.4
v -0.2 2.6 1.4
v 0.2 2.6 1.4
v 1.8 2.6 1.4
v -2 2.6 0.2
v -1.8 2.6 0.2
v 1.8 2.6 0.2
v 2 2.6 0.2
v -2 2.7 0.2
v -1.8 2.7 0.2
v 1.8 2.7 0.2
v 2 2.7 0.2
v -2 2.7 -0.8
v -1.8 2.7 -0.8
v 1.8 2.7 -0.8
v 2 2.7 -0.8
v -2 2.8 -0.8
v -1.8 2.8 -0.8
v 1.8 2.8 -0.8
v 2 2.8 -0.8
v -1.8 2.8 -1.5
v 1.8 2.8 -1.5
v -2 2.8 -1.6
v 2 2.8 -1.6
v -0.2 2.7 1.7
v 0.2 2.7 1.7
v -0.2 2.7 1.6
v 0.2 2.7 1.6
v -2 3 1.6
v 2 3 1.6
v -2 3 0.2
v 2 3 0.2
v -2 3.1 0.2
v 2 3.1 0.2
v -2 3.1 -0.8
v 2 3.1 -0.8
v -2 3.2 -0.8
v 2 3.2 -0.8
v -2 3.2 -1.6
v 2 3.2 -1.6

# faces
f 3/2/1 2/2/1 1/2/1
f 5/2/1 4/2/1 3/2/1
f 7/2/1 3/2/1 1/2/1
f 7/2/1 6/2/1 5/2/1
f 7/2/1 5/2/1 3/2/1
f 8/2/1 6/2/1 7/2/1
f 9/2/1 6/2/1 8/2/1
f 10/2/1 6/2/1 9/2/1
f 11/2/1 6/2/1 10/2/1
f 12/2/1 6/2/1 11/2/1
f 15/2/1 14/2/1 13/2/1
f 16/2/1 14/2/1 15/2/1
f 17/2/1 14/2/1 16/2/1
f 18/2/1 14/2/1 17/2/1
f 19/2/1 14/2/1 18/2/1
f 20/2/1 14/2/1 19/2/1
f 25/3/1 22/3/1 21/3/1
f 26/3/1 22/3/1 25/3/1
f 27/3/1 24/3/1 23/3/1
f 28/3/1 24/3/1 27/3/1
f 31/1/1 30/1/1 29/1/1
f 32/1/1 30/1/1 31/1/1
f 33/1/1 31/1/1 29/1/1
f 34/1/1 31/1/1 33/1/1
f 37/2/1 36/2/1 35/2/1
f 38/2/1 36/2/1 37/2/1
f 43/3/1 40/3/1 39/3/1
f 44/3/1 40/3/1 43/3/1
f 45/3/1 42/3/1 41/3/1
f 46/3/1 42/3/1 45/3/1
f 47/3/2 48/3/2 51/3/2
f 51/3/2 48/3/2 52/3/2
f 49/3/2 50/3/2 53/3/2
f 53/3/2 50/3/2 54/3/2
f 55/2/2 56/2/2 57/2/2
f 57/2/2 56/2/2 58/2/2
f 59/1/2 60/1/2 61/1/2
f 61/1/2 60/1/2 62/1/2
f 59/1/2 61/1/2 63/1/2
f 63/1/2 61/1/2 64/1/2
f 65/3/2 66/3/2 69/3/2
f 69/3/2 66/3/2 70/3/2
f 67/3/2 68/3/2 71/3/2
f 71/3/2 68/3/2 72/3/2
f 73/2/2 74/2/2 75/2/2
f 75/2/2 74/2/2 76/2/2
f 76/2/2 74/2/2 77/2/2
f 77/2/2 74/2/2 78/2/2
f 78/2/2 74/2/2 79/2/2
f 79/2/2 74/2/2 80/2/2
f 81/2/2 82/2/2 83/2/2
f 83/2/2 84/2/2 85/2/2
f 81/2/2 83/2/2 87/2/2
f 85/2/2 86/2/2 87/2/2
f 83/2/2 85/2/2 87/2/2
f 87/2/2 86/2/2 88/2/2
f 88/2/2 86/2/2 89/2/2
f 89/2/2 86/2/2 90/2/2
f 90/2/2 86/2/2 91/2/2
f 91/2/2 86/2/2 92/2/2
f 95/1/3 94/1/3 93/1/3
f 96/1/3 94/1/3 95/1/3
f 99/2/3 98/2/3 97/2/3
f 100/2/3 98/2/3 99/2/3
f 102/2/3 98/2/3 100/2/3
f 103/2/3 102/2/3 101/2/3
f 104/2/3 98/2/3 102/2/3
f 104/2/3 102/2/3 103/2/3
f 107/2/3 106/2/3 105/2/3
f 108/2/3 106/2/3 107/2/3
f 109/2/3 106/2/3 108/2/3
f 110/2/3 106/2/3 109/2/3
f 111/2/3 109/2/3 108/2/3
f 114/2/3 111/2/3 108/2/3
f 114/2/3 112/2/3 111/2/3
f 115/2/3 114/2/3 113/2/3
f 116/2/3 112/2/3 114/2/3
f 116/2/3 114/2/3 115/2/3
f 119/3/3 118/3/3 117/3/3
f 120/3/3 118/3/3 119/3/3
f 123/3/3 122/3/3 121/3/3
f 124/3/3 122/3/3 123/3/3
f 127/2/3 126/2/3 125/2/3
f 128/2/3 126/2/3 127/2/3
f 133/3/3 132/3/3 131/3/3
f 134/3/3 132/3/3 133/3/3
f 137/3/3 136/3/3 135/3/3
f 138/3/3 136/3/3 137/3/3
f 139/2/3 130/2/3 129/2/3
f 140/2/3 130/2/3 139/2/3
f 141/3/4 142/3/4 143/3/4
f 143/3/4 142/3/4 144/3/4
f 145/3/4 146/3/4 147/3/4
f 147/3/4 146/3/4 148/3/4
f 149/2/4 150/2/4 151/2/4
f 151/2/4 150/2/4 152/2/4
f 153/2/4 154/2/4 155/2/4
f 155/2/4 154/2/4 156/2/4
f 157/2/4 158/2/4 159/2/4
f 159/2/4 158/2/4 160/2/4
f 161/2/4 162/2/4 163/2/4
f 163/2/4 162/2/4 164/2/4
f 165/3/4 166/3/4 167/3/4
f 167/3/4 166/3/4 168/3/4
f 169/3/4 170/3/4 171/3/4
f 171/3/4 170/3/4 172/3/4
f 173/2/4 174/2/4 175/2/4
f 175/2/4 174/2/4 176/2/4
f 176/2/4 174/2/4 178/2/4
f 177/2/4 178/2/4 179/2/4
f 178/2/4 174/2/4 180/2/4
f 179/2/4 178/2/4 180/2/4
f 181/2/4 182/2/4 183/2/4
f 183/2/4 182/2/4 184/2/4
f 189/3/5 186/3/5 185/3/5
f 190/3/5 186/3/5 189/3/5
f 191/3/5 188/3/5 187/3/5
f 192/3/5 188/3/5 191/3/5
f 197/3/5 194/3/5 193/3/5
f 198/3/5 194/3/5 197/3/5
f 199/3/5 196/3/5 195/3/5
f 200/3/5 196/3/5 199/3/5
f 205/2/5 202/2/5 201/2/5
f 206/2/5 202/2/5 205/2/5
f 207/2/5 204/2/5 203/2/5
f 208/2/5 204/2/5 207/2/5
f 209/2/5 205/2/5 201/2/5
f 210/2/5 202/2/5 206/2/5
f 211/2/5 207/2/5 203/2/5
f 212/2/5 204/2/5 208/2/5
f 213/2/5 209/2/5 201/2/5
f 213/2/5 210/2/5 209/2/5
f 214/2/5 202/2/5 210/2/5
f 214/2/5 210/2/5 213/2/5
f 215/2/5 212/2/5 211/2/5
f 215/2/5 211/2/5 203/2/5
f 216/2/5 204/2/5 212/2/5
f 216/2/5 212/2/5 215/2/5
f 217/2/5 213/2/5 201/2/5
f 218/2/5 202/2/5 214/2/5
f 219/2/5 215/2/5 203/2/5
f 220/2/5 204/2/5 216/2/5
f 221/2/5 217/2/5 201/2/5
f 221/2/5 218/2/5 217/2/5
f 222/2/5 202/2/5 218/2/5
f 222/2/5 218/2/5 221/2/5
f 223/2/5 220/2/5 219/2/5
f 223/2/5 219/2/5 203/2/5
f 224/2/5 204/2/5 220/2/5
f 224/2/5 220/2/5 223/2/5
f 227/2/5 226/2/5 225/2/5
f 228/2/5 226/2/5 227/2/5
f 231/1/5 230/1/5 229/1/5
f 232/1/5 230/1/5 231/1/5
f 237/2/5 234/2/5 233/2/5
f 238/2/5 234/2/5 237/2/5
f 239/2/5 236/2/5 235/2/5
f 240/2/5 236/2/5 239/2/5
f 241/2/5 237/2/5 233/2/5
f 242/2/5 237/2/5 241/2/5
f 243/2/5 236/2/5 240/2/5
f 244/2/5 236/2/5 243/2/5
f 249/2/5 246/2/5 245/2/5
f 250/2/5 246/2/5 249/2/5
f 251/2/5 248/2/5 247/2/5
f 252/2/5 248/2/5 251/2/5
f 257/2/5 254/2/5 253/2/5
f 258/2/5 256/2/5 255/2/5
f 259/2/5 257/2/5 253/2/5
f 259/2/5 258/2/5 257/2/5
f 260/2/5 256/2/5 258/2/5
f 260/2/5 258/2/5 259/2/5
f 261/1/6 262/1/6 263/1/6
f 263/1/6 262/1/6 264/1/6
f 265/2/6 266/2/6 267/2/6
f 267/2/6 266/2/6 268/2/6
f 269/2/6 270/2/6 271/2/6
f 271/2/6 270/2/6 272/2/6
f 273/2/6 274/2/6 275/2/6
f 275/2/6 274/2/6 276/2/6
