# MagicaVoxel @ Ephtracy

# group
o 

# material
mtllib road1.mtl
usemtl palette

# normals
vn -1 0 0
vn 1 0 0
vn 0 0 1
vn 0 0 -1
vn 0 -1 0
vn 0 1 0

# texcoords
vt 0.970703 0.5
vt 0.978516 0.5
vt 0.982422 0.5

# verts
v -1.6 0 1.6
v -1.6 0 -1.6
v -1.6 0.4 1.6
v -1.6 0.4 -1.6
v 0.8 0.3 1.6
v 0.8 0.3 -1.6
v 0.8 0.4 1.6
v 0.8 0.4 -1.6
v -0.8 0.3 1.6
v -0.8 0.3 -1.6
v -0.8 0.4 1.6
v -0.8 0.4 -1.6
v 1.6 0 1.6
v 1.6 0 -1.6
v 1.6 0.4 1.6
v 1.6 0.4 -1.6
v -1.6 0 1.6
v -1.6 0.4 1.6
v -0.9 0 1.6
v -0.9 0.4 1.6
v -0.8 0 1.6
v -0.8 0.3 1.6
v -0.8 0.4 1.6
v 0.8 0 1.6
v 0.8 0.3 1.6
v 0.8 0.4 1.6
v 0.9 0 1.6
v 0.9 0.4 1.6
v 1.6 0 1.6
v 1.6 0.4 1.6
v -1.6 0 -1.6
v -1.6 0.4 -1.6
v -0.9 0 -1.6
v -0.9 0.4 -1.6
v -0.8 0 -1.6
v -0.8 0.3 -1.6
v -0.8 0.4 -1.6
v 0.8 0 -1.6
v 0.8 0.3 -1.6
v 0.8 0.4 -1.6
v 0.9 0 -1.6
v 0.9 0.4 -1.6
v 1.6 0 -1.6
v 1.6 0.4 -1.6
v -1.6 0 1.6
v -0.9 0 1.6
v -0.8 0 1.6
v 0.8 0 1.6
v 0.9 0 1.6
v 1.6 0 1.6
v -1.6 0 -1.6
v -0.9 0 -1.6
v -0.8 0 -1.6
v 0.8 0 -1.6
v 0.9 0 -1.6
v 1.6 0 -1.6
v -0.8 0.3 1.6
v 0.8 0.3 1.6
v -0.8 0.3 -1.6
v 0.8 0.3 -1.6
v -1.6 0.4 1.6
v -0.9 0.4 1.6
v -0.8 0.4 1.6
v 0.8 0.4 1.6
v 0.9 0.4 1.6
v 1.6 0.4 1.6
v -1.6 0.4 -1.6
v -0.9 0.4 -1.6
v -0.8 0.4 -1.6
v 0.8 0.4 -1.6
v 0.9 0.4 -1.6
v 1.6 0.4 -1.6

# faces
f 3/2/1 2/2/1 1/2/1
f 4/2/1 2/2/1 3/2/1
f 7/3/1 6/3/1 5/3/1
f 8/3/1 6/3/1 7/3/1
f 9/3/2 10/3/2 11/3/2
f 11/3/2 10/3/2 12/3/2
f 13/2/2 14/2/2 15/2/2
f 15/2/2 14/2/2 16/2/2
f 19/2/3 18/2/3 17/2/3
f 20/2/3 18/2/3 19/2/3
f 21/3/3 20/3/3 19/3/3
f 22/3/3 20/3/3 21/3/3
f 23/3/3 20/3/3 22/3/3
f 24/1/3 22/1/3 21/1/3
f 25/1/3 22/1/3 24/1/3
f 27/3/3 25/3/3 24/3/3
f 27/3/3 26/3/3 25/3/3
f 28/3/3 26/3/3 27/3/3
f 29/2/3 28/2/3 27/2/3
f 30/2/3 28/2/3 29/2/3
f 31/2/4 32/2/4 33/2/4
f 33/2/4 32/2/4 34/2/4
f 33/3/4 34/3/4 35/3/4
f 35/3/4 34/3/4 36/3/4
f 36/3/4 34/3/4 37/3/4
f 35/1/4 36/1/4 38/1/4
f 38/1/4 36/1/4 39/1/4
f 38/3/4 39/3/4 41/3/4
f 39/3/4 40/3/4 41/3/4
f 41/3/4 40/3/4 42/3/4
f 41/2/4 42/2/4 43/2/4
f 43/2/4 42/2/4 44/2/4
f 51/2/5 46/2/5 45/2/5
f 52/3/5 47/3/5 46/3/5
f 52/2/5 46/2/5 51/2/5
f 53/1/5 48/1/5 47/1/5
f 53/3/5 47/3/5 52/3/5
f 54/3/5 49/3/5 48/3/5
f 54/1/5 48/1/5 53/1/5
f 55/2/5 50/2/5 49/2/5
f 55/3/5 49/3/5 54/3/5
f 56/2/5 50/2/5 55/2/5
f 57/1/6 58/1/6 59/1/6
f 59/1/6 58/1/6 60/1/6
f 61/2/6 62/2/6 67/2/6
f 62/3/6 63/3/6 68/3/6
f 67/2/6 62/2/6 68/2/6
f 68/3/6 63/3/6 69/3/6
f 64/3/6 65/3/6 70/3/6
f 65/2/6 66/2/6 71/2/6
f 70/3/6 65/3/6 71/3/6
f 71/2/6 66/2/6 72/2/6
