# MagicaVoxel @ Ephtracy

# group
o 

# material
mtllib road7.mtl
usemtl palette

# normals
vn -1 0 0
vn 1 0 0
vn 0 0 1
vn 0 0 -1
vn 0 -1 0
vn 0 1 0

# texcoords
vt 0.970703 0.5
vt 0.978516 0.5
vt 0.982422 0.5

# verts
v -1.6 0 1.6
v -1.6 0 0.9
v -1.6 0 0.8
v -1.6 0 -1.6
v -1.6 0.3 0.8
v -1.6 0.3 -1.6
v -1.6 0.4 1.6
v -1.6 0.4 0.9
v -1.6 0.4 0.8
v 1.6 0 1.6
v 1.6 0 0.9
v 1.6 0 0.8
v 1.6 0 -1.6
v 1.6 0.3 0.8
v 1.6 0.3 -1.6
v 1.6 0.4 1.6
v 1.6 0.4 0.9
v 1.6 0.4 0.8
v -1.6 0 1.6
v -1.6 0.4 1.6
v 1.6 0 1.6
v 1.6 0.4 1.6
v -1.6 0.3 0.8
v -1.6 0.4 0.8
v 1.6 0.3 0.8
v 1.6 0.4 0.8
v -1.6 0 -1.6
v -1.6 0.3 -1.6
v 1.6 0 -1.6
v 1.6 0.3 -1.6
v -1.6 0 1.6
v 1.6 0 1.6
v -1.6 0 0.9
v -0.8 0 0.9
v 0.8 0 0.9
v 1.6 0 0.9
v -1.6 0 0.8
v -0.8 0 0.8
v 0.8 0 0.8
v 1.6 0 0.8
v -1.6 0 -1.6
v 1.6 0 -1.6
v -1.6 0.3 0.8
v 1.6 0.3 0.8
v -1.6 0.3 -1.6
v 1.6 0.3 -1.6
v -1.6 0.4 1.6
v 1.6 0.4 1.6
v -1.6 0.4 0.9
v 1.6 0.4 0.9
v -1.6 0.4 0.8
v 1.6 0.4 0.8

# faces
f 5/3/1 3/3/1 2/3/1
f 5/1/1 4/1/1 3/1/1
f 6/1/1 4/1/1 5/1/1
f 7/2/1 2/2/1 1/2/1
f 8/3/1 5/3/1 2/3/1
f 8/2/1 2/2/1 7/2/1
f 9/3/1 5/3/1 8/3/1
f 11/3/2 12/3/2 14/3/2
f 12/1/2 13/1/2 14/1/2
f 14/1/2 13/1/2 15/1/2
f 10/2/2 11/2/2 16/2/2
f 11/3/2 14/3/2 17/3/2
f 16/2/2 11/2/2 17/2/2
f 17/3/2 14/3/2 18/3/2
f 21/2/3 20/2/3 19/2/3
f 22/2/3 20/2/3 21/2/3
f 23/3/4 24/3/4 25/3/4
f 25/3/4 24/3/4 26/3/4
f 27/1/4 28/1/4 29/1/4
f 29/1/4 28/1/4 30/1/4
f 33/2/5 32/2/5 31/2/5
f 34/2/5 32/2/5 33/2/5
f 35/2/5 32/2/5 34/2/5
f 36/2/5 32/2/5 35/2/5
f 37/3/5 34/3/5 33/3/5
f 38/1/5 35/1/5 34/1/5
f 38/3/5 34/3/5 37/3/5
f 39/3/5 36/3/5 35/3/5
f 39/1/5 35/1/5 38/1/5
f 40/3/5 36/3/5 39/3/5
f 41/1/5 38/1/5 37/1/5
f 41/1/5 39/1/5 38/1/5
f 41/1/5 40/1/5 39/1/5
f 42/1/5 40/1/5 41/1/5
f 43/1/6 44/1/6 45/1/6
f 45/1/6 44/1/6 46/1/6
f 47/2/6 48/2/6 49/2/6
f 49/2/6 48/2/6 50/2/6
f 49/3/6 50/3/6 51/3/6
f 51/3/6 50/3/6 52/3/6
