# MagicaVoxel @ Ephtracy

# group
o 

# material
mtllib road8.mtl
usemtl palette

# normals
vn -1 0 0
vn 1 0 0
vn 0 0 1
vn 0 0 -1
vn 0 -1 0
vn 0 1 0

# texcoords
vt 0.970703 0.5
vt 0.978516 0.5
vt 0.982422 0.5

# verts
v -1.6 0 1.6
v -1.6 0 0.9
v -1.6 0 0.8
v -1.6 0 -1.6
v -1.6 0.3 0.8
v -1.6 0.3 -1.6
v -1.6 0.4 1.6
v -1.6 0.4 0.9
v -1.6 0.4 0.8
v 0.8 0.3 0.8
v 0.8 0.3 -1.6
v 0.8 0.4 0.8
v 0.8 0.4 -1.6
v 1.6 0 1.6
v 1.6 0 -1.6
v 1.6 0.4 1.6
v 1.6 0.4 -1.6
v -1.6 0 1.6
v -1.6 0.4 1.6
v 1.6 0 1.6
v 1.6 0.4 1.6
v -1.6 0.3 0.8
v -1.6 0.4 0.8
v 0.8 0.3 0.8
v 0.8 0.4 0.8
v -1.6 0 -1.6
v -1.6 0.3 -1.6
v 0.8 0 -1.6
v 0.8 0.3 -1.6
v 0.8 0.4 -1.6
v 0.9 0 -1.6
v 0.9 0.4 -1.6
v 1.6 0 -1.6
v 1.6 0.4 -1.6
v -1.6 0 1.6
v 1.6 0 1.6
v -1.6 0 0.9
v -0.8 0 0.9
v 0.8 0 0.9
v -1.6 0 0.8
v -0.8 0 0.8
v 0.8 0 -1.5
v 0.9 0 -1.5
v -1.6 0 -1.6
v 0.8 0 -1.6
v 0.9 0 -1.6
v 1.6 0 -1.6
v -1.6 0.3 0.8
v 0.8 0.3 0.8
v -1.6 0.3 -1.6
v 0.8 0.3 -1.6
v -1.6 0.4 1.6
v 1.6 0.4 1.6
v -1.6 0.4 0.9
v 0.9 0.4 0.9
v -1.6 0.4 0.8
v 0.8 0.4 0.8
v 0.8 0.4 -1.6
v 0.9 0.4 -1.6
v 1.6 0.4 -1.6

# faces
f 5/3/1 3/3/1 2/3/1
f 5/1/1 4/1/1 3/1/1
f 6/1/1 4/1/1 5/1/1
f 7/2/1 2/2/1 1/2/1
f 8/3/1 5/3/1 2/3/1
f 8/2/1 2/2/1 7/2/1
f 9/3/1 5/3/1 8/3/1
f 12/3/1 11/3/1 10/3/1
f 13/3/1 11/3/1 12/3/1
f 14/2/2 15/2/2 16/2/2
f 16/2/2 15/2/2 17/2/2
f 20/2/3 19/2/3 18/2/3
f 21/2/3 19/2/3 20/2/3
f 22/3/4 23/3/4 24/3/4
f 24/3/4 23/3/4 25/3/4
f 26/1/4 27/1/4 28/1/4
f 28/1/4 27/1/4 29/1/4
f 28/3/4 29/3/4 31/3/4
f 29/3/4 30/3/4 31/3/4
f 31/3/4 30/3/4 32/3/4
f 31/2/4 32/2/4 33/2/4
f 33/2/4 32/2/4 34/2/4
f 37/2/5 36/2/5 35/2/5
f 38/2/5 36/2/5 37/2/5
f 39/2/5 36/2/5 38/2/5
f 40/3/5 38/3/5 37/3/5
f 41/1/5 39/1/5 38/1/5
f 41/3/5 38/3/5 40/3/5
f 42/2/5 36/2/5 39/2/5
f 42/1/5 39/1/5 41/1/5
f 42/1/5 41/1/5 40/1/5
f 43/2/5 36/2/5 42/2/5
f 44/1/5 42/1/5 40/1/5
f 45/3/5 43/3/5 42/3/5
f 45/1/5 42/1/5 44/1/5
f 46/2/5 36/2/5 43/2/5
f 46/3/5 43/3/5 45/3/5
f 47/2/5 36/2/5 46/2/5
f 48/1/6 49/1/6 50/1/6
f 50/1/6 49/1/6 51/1/6
f 52/2/6 53/2/6 54/2/6
f 54/2/6 53/2/6 55/2/6
f 54/3/6 55/3/6 56/3/6
f 56/3/6 55/3/6 57/3/6
f 57/3/6 55/3/6 58/3/6
f 55/2/6 53/2/6 59/2/6
f 58/3/6 55/3/6 59/3/6
f 59/2/6 53/2/6 60/2/6
